<?xml version="1.0" encoding="UTF-8" standalone="no"?>
<svg
   xmlns:dc="http://purl.org/dc/elements/1.1/"
   xmlns:cc="http://creativecommons.org/ns#"
   xmlns:rdf="http://www.w3.org/1999/02/22-rdf-syntax-ns#"
   xmlns:svg="http://www.w3.org/2000/svg"
   xmlns="http://www.w3.org/2000/svg"
   xmlns:xlink="http://www.w3.org/1999/xlink"
   xmlns:sodipodi="http://sodipodi.sourceforge.net/DTD/sodipodi-0.dtd"
   xmlns:inkscape="http://www.inkscape.org/namespaces/inkscape"
   inkscape:version="0.92.4 (5da689c313, 2019-01-14)"
   sodipodi:docname="astarium.svg"
   width="764.07483"
   height="857.01923"
   viewBox="-0.7 0 202.55624 226.753"
   version="1.1"
   id="svg8">
  <sodipodi:namedview
     pagecolor="#ffffff"
     bordercolor="#666666"
     borderopacity="1"
     objecttolerance="10"
     gridtolerance="10"
     guidetolerance="10"
     inkscape:pageopacity="0"
     inkscape:pageshadow="2"
     inkscape:window-width="1920"
     inkscape:window-height="1015"
     id="namedview1515"
     showgrid="false"
     inkscape:zoom="0.5"
     inkscape:cx="1043.4116"
     inkscape:cy="334.83551"
     inkscape:window-x="0"
     inkscape:window-y="36"
     inkscape:window-maximized="1"
     inkscape:current-layer="text999"
     viewbox-x="-0.7"
     viewbox-width="53.02"
     fit-margin-top="0"
     fit-margin-left="0"
     fit-margin-right="0"
     fit-margin-bottom="0" />
  <defs
     id="defs2">
    <linearGradient
       inkscape:collect="always"
       id="linearGradient1258">
      <stop
         style="stop-color:#a79fff;stop-opacity:1"
         offset="0"
         id="stop1254" />
      <stop
         style="stop-color:#00dcff;stop-opacity:0.98823529"
         offset="1"
         id="stop1256" />
    </linearGradient>
    <linearGradient
       id="linearGradient1184"
       inkscape:collect="always">
      <stop
         id="stop1180"
         offset="0"
         style="stop-color:#4d5cff;stop-opacity:1" />
      <stop
         id="stop1182"
         offset="1"
         style="stop-color:#00dcff;stop-opacity:0.98823529" />
    </linearGradient>
    <linearGradient
       inkscape:collect="always"
       xlink:href="#linearGradient1184"
       id="linearGradient1186"
       gradientUnits="userSpaceOnUse"
       x1="40.116909"
       y1="118.5153"
       x2="225.66994"
       y2="167.2937" />
    <linearGradient
       inkscape:collect="always"
       xlink:href="#linearGradient1184"
       id="linearGradient1200"
       gradientUnits="userSpaceOnUse"
       x1="40.116909"
       y1="118.5153"
       x2="225.66994"
       y2="167.2937" />
    <linearGradient
       inkscape:collect="always"
       xlink:href="#linearGradient1258"
       id="linearGradient1252"
       x1="48.046844"
       y1="133.28682"
       x2="171.87376"
       y2="133.28682"
       gradientUnits="userSpaceOnUse"
       gradientTransform="matrix(3.7721613,0,0,3.7721613,161.39024,-118.22786)" />
    <linearGradient
       inkscape:collect="always"
       xlink:href="#linearGradient1258"
       id="linearGradient1494"
       gradientUnits="userSpaceOnUse"
       gradientTransform="translate(-9.3823011,-7.1773197)"
       x1="48.046844"
       y1="133.28682"
       x2="171.87376"
       y2="133.28682" />
    <linearGradient
       inkscape:collect="always"
       xlink:href="#linearGradient1184"
       id="linearGradient1630"
       gradientUnits="userSpaceOnUse"
       x1="40.116909"
       y1="118.5153"
       x2="225.66994"
       y2="167.2937" />
  </defs>
  <metadata
     id="metadata5">
    <rdf:RDF>
      <cc:Work
         rdf:about="">
        <dc:format>image/svg+xml</dc:format>
        <dc:type
           rdf:resource="http://purl.org/dc/dcmitype/StillImage" />
        <dc:title></dc:title>
      </cc:Work>
    </rdf:RDF>
  </metadata>
  <g
     aria-label="A"
     style="font-style:normal;font-variant:normal;font-weight:normal;font-stretch:normal;font-size:262.97918701px;line-height:1.25;font-family:Acre;-inkscape-font-specification:Acre;letter-spacing:0px;word-spacing:0px;fill:url(#linearGradient1186);fill-opacity:1;stroke:none;stroke-width:0.2651"
     id="text999"
     transform="matrix(1.2168038,0,0,1.2168038,-49.514406,-30.843977)">
    <path
       d="m 152.93498,148.49493 -68.900548,24.19408 -16.30471,39.1839 H 40.116908 L 121.37748,25.157687 h 3.68171 L 206.58273,211.87291 H 179.2329 Z m 0,0 -29.45367,-71.004385 -39.446878,95.198465 z"
       style="font-style:normal;font-variant:normal;font-weight:normal;font-stretch:normal;font-size:262.97918701px;font-family:Acre;-inkscape-font-specification:Acre;fill:url(#linearGradient1630);fill-opacity:1;stroke-width:0.2651"
       id="path1019"
       inkscape:connector-curvature="0"
       sodipodi:nodetypes="ccccccccccccc" />
  </g>
  <path
     style="font-style:normal;font-variant:normal;font-weight:normal;font-stretch:normal;font-size:14.00757027px;line-height:1.25;font-family:Ani;-inkscape-font-specification:Ani;letter-spacing:0px;word-spacing:0px;opacity:0.98999999;fill:url(#linearGradient1494);fill-opacity:1;stroke:none;stroke-width:0.35018927;stroke-opacity:1"
     d="m 100.85797,25.2548 c -10.645749,0 -20.357541,2.24138 -29.135611,6.7238 -8.59131,4.48242 -15.4083,10.55211 -20.45102,18.20958 -4.85596,7.65747 -7.28404,16.15574 -7.28404,25.49412 0,10.64576 2.33473,19.610249 7.00393,26.89419 4.85595,7.09717 10.64559,12.79398 17.36922,17.08963 6.72363,4.10889 15.595302,8.68448 26.614582,13.72721 9.338379,4.29565 16.622099,8.03112 21.851589,11.20617 5.41626,2.98828 9.89904,6.91044 13.44762,11.7664 3.54858,4.66919 5.32271,10.36549 5.32271,17.08911 0,8.03102 -2.98816,14.66129 -8.96473,19.89079 -5.97656,5.22949 -13.82089,7.84427 -23.53281,7.84427 -8.591309,0 -16.902369,-2.42808 -24.933361,-7.28404 -7.84424,-4.85596 -14.56787,-11.29954 -20.1709,-19.33055 l -19.33056,18.21009 c 6.53687,10.08545 15.40853,18.30316 26.61459,24.65326 11.20605,6.3501 23.252572,9.52496 36.139541,9.52496 12.51343,0 23.34592,-2.33473 32.49753,-7.00392 9.33838,-4.85596 16.4354,-11.39238 21.29136,-19.61015 4.85597,-8.21778 7.28404,-17.36948 7.28404,-27.45494 0,-11.20605 -2.52143,-20.54445 -7.56415,-28.01516 -4.85596,-7.65747 -10.83281,-13.63433 -17.92998,-17.92998 -7.09717,-4.48242 -16.34171,-9.33806 -27.73453,-14.56756 -8.77808,-3.92212 -15.688929,-7.37754 -20.731649,-10.36582 -4.85595,-2.988281 -8.964812,-6.630401 -12.326622,-10.92605 -3.36182,-4.29565 -5.04259,-9.338 -5.04259,-15.12779 0,-7.28394 2.80146,-13.26079 8.40449,-17.92998 5.603032,-4.85595 12.887252,-7.28403 21.852101,-7.28403 7.09717,0 14.0075,1.96134 20.73113,5.88346 6.9104,3.73535 12.98008,8.59151 18.20957,14.56807 l 17.36975,-17.92998 c -6.72363,-8.031 -15.03522,-14.66129 -24.9339,-19.89078 -9.71191,-5.41626 -20.35772,-8.12438 -31.9373,-8.12438 z"
     id="text1190"
     inkscape:connector-curvature="0" />
</svg>
